<svg class="lds-gears" width="64px"  height="64px"  xmlns="http://www.w3.org/2000/svg" xmlns:xlink="http://www.w3.org/1999/xlink" viewBox="0 0 100 100" preserveAspectRatio="xMidYMid" style="background: none;"><g transform="translate(50 50)"> <g transform="translate(-19 -19) scale(0.6)"> <g transform="rotate(82.2857)">
<animateTransform attributeName="transform" type="rotate" values="0;360" keyTimes="0;1" dur="3.5s" begin="0s" repeatCount="indefinite"></animateTransform><path d="M34.64101615137754 -5 L41.64101615137754 -5 L41.64101615137754 5 L34.64101615137754 5 A35 35 0 0 1 30.96409703034384 16.31639344633035 L30.96409703034384 16.31639344633035 L36.62721599096847 20.430890212377662 L30.749363468043736 28.521060156127135 L25.086244507419103 24.406563390079825 A35 35 0 0 1 15.459945274668469 31.400479169978542 L15.459945274668469 31.400479169978542 L17.6230642352931 38.057874784044614 L8.112499072341564 41.14804472779409 L5.949380111716931 34.49064911372801 A35 35 0 0 1 -5.949380111716927 34.49064911372802 L-5.949380111716927 34.49064911372802 L-8.112499072341558 41.148044727794094 L-17.623064235293096 38.057874784044614 L-15.459945274668465 31.400479169978542 A35 35 0 0 1 -25.086244507419103 24.40656339007983 L-25.086244507419103 24.40656339007983 L-30.749363468043732 28.52106015612714 L-36.627215990968466 20.430890212377662 L-30.964097030343837 16.316393446330352 A35 35 0 0 1 -34.64101615137754 5.000000000000004 L-34.64101615137754 5.000000000000004 L-41.64101615137754 5.000000000000005 L-41.64101615137754 -4.999999999999996 L-34.64101615137754 -4.9999999999999964 A35 35 0 0 1 -30.96409703034384 -16.316393446330345 L-30.96409703034384 -16.316393446330345 L-36.62721599096847 -20.430890212377655 L-30.74936346804374 -28.52106015612713 L-25.086244507419106 -24.40656339007982 A35 35 0 0 1 -15.459945274668458 -31.400479169978546 L-15.459945274668458 -31.400479169978546 L-17.623064235293093 -38.05787478404462 L-8.112499072341585 -41.14804472779409 L-5.949380111716951 -34.49064911372801 A35 35 0 0 1 5.9493801117169385 -34.49064911372801 L5.9493801117169385 -34.49064911372801 L8.112499072341569 -41.14804472779409 L17.62306423529308 -38.05787478404463 L15.459945274668447 -31.40047916997855 A35 35 0 0 1 25.086244507419106 -24.40656339007982 L25.086244507419106 -24.40656339007982 L30.749363468043736 -28.521060156127135 L36.62721599096846 -20.430890212377683 L30.964097030343826 -16.31639344633037 A35 35 0 0 1 34.64101615137754 -4.999999999999994 M0 -30A30 30 0 1 0 0 30 A30 30 0 1 0 0 -30" fill="#fbd848"></path></g></g> <g transform="translate(19 19) scale(0.6)"> <g transform="rotate(259.714)">
<animateTransform attributeName="transform" type="rotate" values="360;0" keyTimes="0;1" dur="3.5s" begin="-0.175s" repeatCount="indefinite"></animateTransform><path d="M34.64101615137754 -5 L41.64101615137754 -5 L41.64101615137754 5 L34.64101615137754 5 A35 35 0 0 1 30.96409703034384 16.31639344633035 L30.96409703034384 16.31639344633035 L36.62721599096847 20.430890212377662 L30.749363468043736 28.521060156127135 L25.086244507419103 24.406563390079825 A35 35 0 0 1 15.459945274668469 31.400479169978542 L15.459945274668469 31.400479169978542 L17.6230642352931 38.057874784044614 L8.112499072341564 41.14804472779409 L5.949380111716931 34.49064911372801 A35 35 0 0 1 -5.949380111716927 34.49064911372802 L-5.949380111716927 34.49064911372802 L-8.112499072341558 41.148044727794094 L-17.623064235293096 38.057874784044614 L-15.459945274668465 31.400479169978542 A35 35 0 0 1 -25.086244507419103 24.40656339007983 L-25.086244507419103 24.40656339007983 L-30.749363468043732 28.52106015612714 L-36.627215990968466 20.430890212377662 L-30.964097030343837 16.316393446330352 A35 35 0 0 1 -34.64101615137754 5.000000000000004 L-34.64101615137754 5.000000000000004 L-41.64101615137754 5.000000000000005 L-41.64101615137754 -4.999999999999996 L-34.64101615137754 -4.9999999999999964 A35 35 0 0 1 -30.96409703034384 -16.316393446330345 L-30.96409703034384 -16.316393446330345 L-36.62721599096847 -20.430890212377655 L-30.74936346804374 -28.52106015612713 L-25.086244507419106 -24.40656339007982 A35 35 0 0 1 -15.459945274668458 -31.400479169978546 L-15.459945274668458 -31.400479169978546 L-17.623064235293093 -38.05787478404462 L-8.112499072341585 -41.14804472779409 L-5.949380111716951 -34.49064911372801 A35 35 0 0 1 5.9493801117169385 -34.49064911372801 L5.9493801117169385 -34.49064911372801 L8.112499072341569 -41.14804472779409 L17.62306423529308 -38.05787478404463 L15.459945274668447 -31.40047916997855 A35 35 0 0 1 25.086244507419106 -24.40656339007982 L25.086244507419106 -24.40656339007982 L30.749363468043736 -28.521060156127135 L36.62721599096846 -20.430890212377683 L30.964097030343826 -16.31639344633037 A35 35 0 0 1 34.64101615137754 -4.999999999999994 M0 -30A30 30 0 1 0 0 30 A30 30 0 1 0 0 -30" fill="#4349d9"></path></g></g></g></svg>